{"title":"The Mortal Instruments City of Bones 2013 BRRip 720p x264 - PRiS","uid":9057474,"size":796136537,"categoryP":"video","categoryS":"hd___movies","magnet":"?xt=urn:btih:f3cf10de3a72083bc60d7ab5f03ba743b4e491aa&amp;dn=The+Mortal+Instruments+City+of+Bones+2013+BRRip+720p+x264+-+PRiS&amp;tr=udp%3A%2F%2Ftracker.openbittorrent.com%3A80&amp;tr=udp%3A%2F%2Fopen.demonii.com%3A1337&amp;tr=udp%3A%2F%2Ftracker.coppersurfer.tk%3A6969&amp;tr=udp%3A%2F%2Fexodus.desync.com%3A6969","seeders":2,"leechers":1,"uploader":"ValidusVyto","files":-1,"time":1381980056,"description":"_______ Visit us at our Semi Public Bittorrent Community ________\n  &lt;a href=&quot;\nhttp://p2pdl.com&quot; rel=&quot;nofollow&quot; target=&quot;_NEW&quot;&gt;\nhttp://p2pdl.com&lt;/a&gt;  _____________________________ &lt;a href=&quot; http://p2pdl.com&quot; rel=&quot;nofollow&quot; target=&quot;_NEW&quot;&gt; http://p2pdl.com&lt;/a&gt;\n\n\n\nThe Mortal Instruments City of Bones 2013 BRRip 720p x264 - PRiSTiNE\n\n\nGenre: Action | Adventure | Drama\nPlot: When her mother disappears, Clary Fray learns that she descends from a line of\nwarriors who protect our world from demons. She joins forces with others like her and\nheads into a dangerous alternate New York called Downworld.\nDirector: Harald Zwart\nStars: Lily Collins, Jamie Campbell Bower, Robert Sheehan.\nRated: PG-13 for intense sequences of fantasy violence and action, and some suggestive\ncontent.\n\nIMDb: &lt;a href=&quot;\nhttp://www.imdb.com/title/tt1538403/&quot; rel=&quot;nofollow&quot; target=&quot;_NEW&quot;&gt;\nhttp://www.imdb.com/title/tt1538403/&lt;/a&gt;\n\nTrailer:\n\n\nFormat                         : MPEG-4\nFile size                      : 752 MiB\nDuration                       : 2h 9mn\nOverall bit rate               : 809 Kbps\n\nVideo\nFormat                         : AVC\nBit rate                       : 727 Kbps\nWidth                          : 1 280 pixels\nHeight                         : 544 pixels\nDisplay aspect ratio           : 2.35:1\nFrame rate mode                : Constant\nFrame rate                     : 23.976 fps\nBit depth                      : 10 bits\nStream size                    : 675 MiB (90%)\nWriting library                : x264 core 138 r2358\n\nAudio\nFormat                         : AAC\nBit rate mode                  : Variable\nBit rate                       : 79.9 Kbps\nChannel count                  : 2 channels\nChannel positions              : Front: L R\nSampling rate                  : 48.0 KHz\nStream size                    : 74.3 MiB (10%)\nLanguage                       : English\n\nSubtitle                       : Yes(English)\n\nSource                         : EVO (Thanks)\n &lt;a href=&quot;\nhttp://someimage.com/C9T1stN&quot; rel=&quot;nofollow&quot; target=&quot;_NEW&quot;&gt;\nhttp://someimage.com/C9T1stN&lt;/a&gt; &lt;a href=&quot;\nhttp://someimage.com/GYxHiJs&quot; rel=&quot;nofollow&quot; target=&quot;_NEW&quot;&gt;\nhttp://someimage.com/GYxHiJs&lt;/a&gt; &lt;a href=&quot;\nhttp://someimage.com/ajEsloG&quot; rel=&quot;nofollow&quot; target=&quot;_NEW&quot;&gt;\nhttp://someimage.com/ajEsloG&lt;/a&gt; &lt;a href=&quot;\nhttp://someimage.com/WGYXqQT&quot; rel=&quot;nofollow&quot; target=&quot;_NEW&quot;&gt;\nhttp://someimage.com/WGYXqQT&lt;/a&gt; &lt;a href=&quot;\nhttp://someimage.com/Iu9auT1&quot; rel=&quot;nofollow&quot; target=&quot;_NEW&quot;&gt;\nhttp://someimage.com/Iu9auT1&lt;/a&gt; &lt;a href=&quot;\nhttp://someimage.com/McEj12R&quot; rel=&quot;nofollow&quot; target=&quot;_NEW&quot;&gt;\nhttp://someimage.com/McEj12R&lt;/a&gt; &lt;a href=&quot;\nhttp://someimage.com/aC9bLEt&quot; rel=&quot;nofollow&quot; target=&quot;_NEW&quot;&gt;\nhttp://someimage.com/aC9bLEt&lt;/a&gt; &lt;a href=&quot;\nhttp://someimage.com/XTZKpNx&quot; rel=&quot;nofollow&quot; target=&quot;_NEW&quot;&gt;\nhttp://someimage.com/XTZKpNx&lt;/a&gt;\n\n\n----------------------------------------------------------------------------------------------------\n\n\nEncoded using revolutionary 10bit encoding, which enables us to provide you more crispier \nand sharper images at small sizes, just make sure you follow our instructions without a fault.\nRecommend to you to use latest version of VLC player. Install K-Lite Codec Pack or shark007 codecs\nin case of any kind of problem in playback (For non-VLC Media Player users). Alternatively, install\nCore AVC codecs, the fastest decoder that there is coupled with Community Center Codec Pack and play\non Windows Media Player Classic. Check sample to be sure.\nEnjoy!\n\nEncoder Notes:Looking For Early Access To Anything You Can Provide DVDScr, R5, DVDR, BluRay, Direct\nAudio, Music Releases and Seedboxes. We require dedicated servers, so as to do more \nand fast releases of movies.\nIf You Got anything to offer please contact us at &quot;&lt;a class=&quot;__cf_email__&quot; href=&quot;/cdn-cgi/l/email-protection&quot; data-cfemail=&quot;88f8faefc8e0fdfbe0a6ebe7e5&quot;&gt;[email&amp;#160;protected]&lt;/a&gt;&lt;script cf-hash='f9e31' type=&quot;text/javascript&quot;&gt;\n/* &lt;![CDATA[ */!function(){try{var t=&quot;currentScript&quot;in document?document.currentScript:function(){for(var t=document.getElementsByTagName(&quot;script&quot;),e=t.length;e--;)if(t[e].getAttribute(&quot;cf-hash&quot;))return t[e]}();if(t&amp;&amp;t.previousSibling){var e,r,n,i,c=t.previousSibling,a=c.getAttribute(&quot;data-cfemail&quot;);if(a){for(e=&quot;&quot;,r=parseInt(a.substr(0,2),16),n=2;a.length-n;n+=2)i=parseInt(a.substr(n,2),16)^r,e+=String.fromCharCode(i);e=document.createTextNode(e),c.parentNode.replaceChild(e,c)}}}catch(u){}}();/* ]]&gt; */&lt;/script&gt;&quot;.\n\nFacebook Fan Page:  \nSearch P2PDL on FB and hit like!!!\n\nFor more of our team uploads visit @                                             &lt;a href=&quot; http://thepiratebay.se/user/vitamin_x&quot; rel=&quot;nofollow&quot; target=&quot;_NEW&quot;&gt; http://thepiratebay.se/user/vitamin_x&lt;/a&gt;\t","torrent":{"xt":"urn:btih:f3cf10de3a72083bc60d7ab5f03ba743b4e491aa","amp;dn":"The+Mortal+Instruments+City+of+Bones+2013+BRRip+720p+x264+-+PRiS","amp;tr":["udp%3A%2F%2Ftracker.openbittorrent.com%3A80","udp%3A%2F%2Fopen.demonii.com%3A1337","udp%3A%2F%2Ftracker.coppersurfer.tk%3A6969","udp%3A%2F%2Fexodus.desync.com%3A6969"],"infoHash":"f3cf10de3a72083bc60d7ab5f03ba743b4e491aa","infoHashBuffer":{"type":"Buffer","data":[243,207,16,222,58,114,8,59,198,13,122,181,240,59,167,67,180,228,145,170]},"announce":[],"urlList":[]}}